<svg viewBox="71.628 71.628 262.093 262.1" xmlns="http://www.w3.org/2000/svg" xmlns:bx="https://boxy-svg.com">
  <defs>
    <path id="path-0" style="fill: none;" d="M 87.342 195.063 C 97.798 185.526 103.08 180.298 109.407 177.134 C 116.112 173.124 127.084 172.508 133.311 171.618 C 145.451 168.797 161.769 169.287 169.168 174.836 C 178.168 180.411 183.878 185.573 183.878 190.925 C 186.144 194.095 188.475 198.757 188.475 201.958 C 188.475 205.767 191.233 210.906 191.233 214.83 C 191.233 219.583 192.153 223.48 192.153 227.241 C 189.829 233.269 190.78 237.808 186.636 241.952 C 179.848 248.74 175.389 255.969 167.329 257.581 C 152.655 259.825 141.978 265.396 129.634 265.396 C 113.378 265.396 103.526 253.75 95.616 244.71 C 91.345 234.655 85.503 225.46 85.503 218.048 C 83.234 208.539 81.825 203.49 81.825 196.442 L 81.825 195.982 L 81.825 195.063"></path>
  </defs>
  <path d="M 108.368 114.209 L 115.653 118.415 L 115.653 126.827 L 108.368 131.033 L 101.083 126.827 L 101.083 118.415 Z" style="fill: none; fill-rule: nonzero; stroke: rgb(29, 52, 71);" transform="matrix(0.990268, 0.139173, -0.139173, 0.990268, 18.120173, -13.888574)" bx:shape="n-gon 108.368 122.621 8.412 8.412 6 0 1@43a3feaf"></path>
  <ellipse style="stroke: rgb(29, 52, 71); fill: none;" cx="201.95" cy="201.173" rx="113.341" ry="113.4"></ellipse>
  <path d="M 108.368 114.209 L 115.653 118.415 L 115.653 126.827 L 108.368 131.033 L 101.083 126.827 L 101.083 118.415 Z" style="fill: none; fill-rule: nonzero; stroke: rgb(29, 52, 71);" transform="matrix(0.809017, 0.587785, -0.587785, 0.809017, 65.065603, 25.272803)" bx:shape="n-gon 108.368 122.621 8.412 8.412 6 0 1@43a3feaf"></path>
  <path d="M 108.368 114.209 L 115.653 118.415 L 115.653 126.827 L 108.368 131.033 L 101.083 126.827 L 101.083 118.415 Z" style="fill: none; fill-rule: nonzero; stroke: rgb(29, 52, 71);" transform="matrix(0.927184, 0.374606, -0.374606, 0.927184, 269.096406, 38.331282)" bx:shape="n-gon 108.368 122.621 8.412 8.412 6 0 1@43a3feaf"></path>
  <path d="M 108.368 114.209 L 115.653 118.415 L 115.653 126.827 L 108.368 131.033 L 101.083 126.827 L 101.083 118.415 Z" style="fill: none; fill-rule: nonzero; stroke: rgb(29, 52, 71);" transform="matrix(0.994522, 0.104528, -0.104528, 0.994522, -6.378815, 112.482549)" bx:shape="n-gon 108.368 122.621 8.412 8.412 6 0 1@43a3feaf"></path>
  <path d="M 202.023 173.2 L 226.946 187.59 L 226.946 216.369 L 202.023 230.758 L 177.1 216.369 L 177.1 187.59 Z" style="stroke: rgb(29, 52, 71); fill: none;" bx:shape="n-gon 202.023 201.979 28.779 28.779 6 0 1@0f2c8a16" bx:origin="0.499539 0.5"></path>
</svg>